<svg width="28" height="28" viewBox="0 0 28 28" fill="none" xmlns="http://www.w3.org/2000/svg">
<path d="M19.6004 13.9999C19.6004 10.8952 17.4717 8.3999 14.0004 8.3999C10.529 8.3999 8.40039 10.8952 8.40039 13.9999C8.40039 17.1046 10.529 19.5999 14.0004 19.5999C17.4717 19.5999 19.6004 17.1046 19.6004 13.9999Z" fill="black"/>
<path d="M28 11.7233C22.7938 11.7233 25.9499 0 14 0C2.0501 0 5.20617 11.7233 0 11.7233V12.1333C6.71676 12.1333 8.01156 6.82651 14 6.82651C20.0154 6.82651 21.2832 12.1333 28 12.1333V11.7233Z" fill="black"/>
<path d="M0 16.2768C5.20617 16.2768 2.0501 28 14 28C25.9499 28 22.7938 16.2768 28 16.2768V15.8667C21.2832 15.8667 19.9884 21.1735 14 21.1735C7.98459 21.1735 6.71676 15.8667 0 15.8667V16.2768Z" fill="black"/>
</svg>
