<svg width="54" height="89" viewBox="0 0 54 89" fill="none" xmlns="http://www.w3.org/2000/svg">
<path d="M26.5985 17.8689C24.7358 17.8689 22.9819 18.0274 21.3369 18.3202C20.6958 18.4299 20.0668 18.0152 19.9338 17.3688L18.954 12.7461C18.8573 12.307 19.1959 11.8801 19.6435 11.8801H28.1952C28.6185 11.8801 28.7637 11.319 28.3887 11.1116L23.5141 8.35507C23.1513 8.14772 22.7521 8.05014 22.3408 8.05014H19.7161C19.2685 8.05014 18.954 7.61104 19.1113 7.18414L21.3611 0.817211C21.4941 0.414704 21.2038 0 20.7805 0H18.7484C18.4944 0 18.2767 0.207352 18.2767 0.47569V7.3671C18.2767 7.74521 17.9743 8.06234 17.5872 8.06234H15.2648C15.035 8.06234 14.8536 8.2453 14.8536 8.47704V11.4654C14.8536 11.6971 15.035 11.8801 15.2648 11.8801H17.3332C17.8533 11.8801 18.2767 12.307 18.2767 12.8314V18.125C18.2767 18.6495 17.9501 19.1374 17.4542 19.3081C4.76572 23.6991 0 37.5673 0 52.9724C0 71.6585 7.20906 88.0759 26.5985 88.0759C45.988 88.0759 53.1971 71.6585 53.1971 52.9724C53.1971 34.2863 45.988 17.8689 26.5985 17.8689ZM26.5985 87.0879C11.8296 87.0879 3.43519 76.3422 3.43519 52.9846C3.43519 35.628 8.07996 25.236 16.5228 21.0401C17.3332 20.6376 18.2767 21.2353 18.2767 22.1501V74.6346C18.2767 74.9273 17.9743 75.1225 17.7082 75.0005C14.3697 73.3539 11.7329 70.7315 10.3056 67.2797L9.89432 67.426C11.6482 76.391 18.446 82.0017 26.5985 82.0017C34.7511 82.0017 41.561 76.3788 43.3028 67.4016L42.8915 67.2919C41.4158 70.8412 38.658 73.5368 35.1623 75.1712C34.9325 75.281 34.6785 75.1103 34.6664 74.8541L34.1221 26.3337C34.1221 26.163 34.0132 26.0044 33.856 25.9434L32.3682 25.3457C32.09 25.236 31.7997 25.4433 31.7876 25.7361L31.1465 66.804C31.1344 67.2675 30.4813 67.3285 30.3845 66.8772L20.6474 20.8206C20.5023 20.1497 20.9377 19.4789 21.603 19.3569C23.1754 19.052 24.8326 18.8934 26.5985 18.8934C41.3674 18.8934 49.774 29.6514 49.774 52.9968C49.7619 76.33 41.3674 87.0879 26.5985 87.0879ZM21.4095 75.8299L21.6514 43.9221C21.6514 43.4586 22.3046 43.3854 22.4134 43.8367L29.7434 76.3178C29.7918 76.5373 29.6467 76.7447 29.4289 76.7813C28.5097 76.9032 27.5541 76.9642 26.5864 76.9642C24.9535 76.9642 23.3811 76.7935 21.8933 76.4519C21.6151 76.391 21.4095 76.1226 21.4095 75.8299Z" fill="white"/>
</svg>
